<svg width="96" height="71" viewBox="0 0 96 71" fill="none" xmlns="http://www.w3.org/2000/svg">
<path d="M4.03798 55.4878C11.6751 47.2632 27.7018 28.5523 30.7111 19.5053C34.4726 8.19653 26.2655 5.455 18.0584 11.2807C9.85134 17.1065 -5.53697 40.4094 4.03798 50.6901C13.6129 60.9708 35.4985 21.5615 35.4985 19.5053C35.4985 17.4491 25.5816 32.1848 23.8718 35.9544C22.162 39.724 38.5762 28.4152 38.5762 27.3872C38.5762 26.5647 36.5244 30.6998 35.4985 32.8702C35.9545 32.2991 37.6187 30.677 40.628 28.7579C42.9029 27.3072 45.553 25.7311 48.2757 22.5895M62.1716 1C60.8038 2.1423 57.179 6.34597 53.6225 14.0222C51.8655 17.8146 50.0551 20.5364 48.2757 22.5895M95 8.53919C88.7307 10.7096 74.5506 15.9414 67.985 19.5053C61.4193 23.0693 56.5862 26.2449 54.9904 27.3872C56.7002 26.0164 59.8463 23.1378 58.752 22.5895C57.3841 21.9041 56.3582 28.0725 51.5708 33.5556C46.7833 39.0386 43.7056 41.0948 44.0476 39.3813C44.3896 37.6679 57.7261 16.7638 63.5395 9.90995C69.3528 3.05614 76.1921 -1.74152 73.1144 3.39883C70.0367 8.53919 60.6732 15.7357 46.0994 21.5614C31.5255 27.3872 10.8772 31.1568 11.2192 42.8082C11.5612 54.4597 13.9549 71.5942 18.0584 69.8808C22.162 68.1673 33.1048 54.8024 38.5762 41.4375C44.0476 28.0725 44.7315 24.9883 45.4154 23.9603C45.9626 23.1378 47.5503 22.7037 48.2757 22.5895" stroke="#898989" stroke-width="0.5"/>
</svg>
