<svg width="20" height="22" viewBox="0 0 20 22" fill="none" xmlns="http://www.w3.org/2000/svg">
<path d="M19 12.3337C19 14.0478 18.4722 15.7234 17.4832 17.1486C16.4943 18.5738 15.0887 19.6847 13.4442 20.3406C11.7996 20.9966 9.99002 21.1682 8.24419 20.8338C6.49836 20.4994 4.89471 19.674 3.63604 18.4619C2.37737 17.2499 1.5202 15.7056 1.17293 14.0244C0.825665 12.3433 1.0039 10.6007 1.68508 9.01707C2.36627 7.43344 3.51983 6.07989 4.99987 5.12759C6.47991 4.17528 8.21997 3.66699 10 3.66699" stroke="#1C1C1C" stroke-width="2" stroke-linecap="round"/>
<path d="M10.9648 4.03809L7.9229 6.96737" stroke="#1C1C1C" stroke-width="2" stroke-linecap="round"/>
<path d="M7.92285 1L10.9648 3.92928" stroke="#1C1C1C" stroke-width="2" stroke-linecap="round"/>
</svg>
