<svg width="28" height="18" viewBox="0 0 28 18" fill="none" xmlns="http://www.w3.org/2000/svg">
<path fill-rule="evenodd" clip-rule="evenodd" d="M18.7413 0.292893C19.1318 -0.0976311 19.7649 -0.0976311 20.1555 0.292893L27.6814 7.81883C27.9123 8.0497 28.0067 8.36538 27.9646 8.66559C28.0066 8.96575 27.9122 9.28135 27.6814 9.51218L20.1554 17.0381C19.7649 17.4286 19.1318 17.4286 18.7412 17.0381C18.3507 16.6476 18.3507 16.0144 18.7412 15.6239L24.5601 9.80508L1 9.80507C0.447714 9.80507 -5.96046e-08 9.35736 0 8.80507C5.96047e-08 8.25279 0.447714 7.80507 1 7.80507L24.8392 7.80508L18.7413 1.70711C18.3507 1.31658 18.3507 0.683417 18.7413 0.292893Z" fill="#F1F1F1"/>
</svg>
