<svg width="39" height="24" viewBox="0 0 39 24" fill="none" xmlns="http://www.w3.org/2000/svg">
    <path fill-rule="evenodd" clip-rule="evenodd" d="M26.2929 0.292894C26.6834 -0.0976315 27.3166 -0.0976315 27.7071 0.292894L38.3137 10.8995C38.5593 11.1451 38.6504 11.4866 38.5872 11.8034C38.6504 12.1201 38.5592 12.4616 38.3137 12.7071L27.7071 23.3137C27.3165 23.7042 26.6834 23.7042 26.2929 23.3137C25.9023 22.9232 25.9023 22.29 26.2929 21.8995L35.1924 13H1C0.447716 13 0 12.5523 0 12C0 11.4477 0.447716 11 1 11H35.5858L26.2929 1.70711C25.9024 1.31658 25.9024 0.68342 26.2929 0.292894Z" fill="#F1F1F1"/>
</svg>