<svg width="150" height="150" viewBox="0 0 150 150" fill="none" xmlns="http://www.w3.org/2000/svg">
<g clip-path="url(#clip0)">
<path d="M0 12C0 5.37258 5.37258 0 12 0H138C144.627 0 150 5.37258 150 12V138C150 144.627 144.627 150 138 150H12C5.37258 150 0 144.627 0 138V12Z" fill="#292929"/>
<path d="M118.878 50.1132C115.297 28.6244 96.7926 17.5816 80.2284 17.5816C76.1495 17.1837 65.9025 17.313 57.5458 21.0138C47.0999 25.6399 34.1171 40.2642 37.2509 63.5436C40.3847 86.8231 52.1736 107.566 53.069 116.221C53.9643 124.876 47.9953 128.308 44.2646 129.204C40.5339 130.099 32.6251 124.876 31.7297 128.308C30.8343 131.741 37.4003 137.859 43.3694 139.053C49.3385 140.247 62.918 135.919 65.9028 137.859C68.8875 139.799 64.4103 149.2 62.918 154.572C61.4258 159.945 70.9763 156.065 75.4531 152.632C79.93 149.2 83.9591 142.037 86.496 142.186C89.0328 142.336 86.3467 151.439 85.1529 156.065C83.9591 160.691 93.5096 159.198 99.9264 149.2C106.343 139.202 105.896 126.518 107.089 116.221C108.283 105.924 122.46 71.6019 118.878 50.1132Z" fill="#FFE816"/>
<path fill-rule="evenodd" clip-rule="evenodd" d="M80.1867 18.0081C76.1476 17.6141 65.983 17.746 57.719 21.4057C47.4358 25.9597 34.5683 40.4082 37.6751 63.4869C39.2353 75.0771 42.9518 86.0458 46.3999 95.2161C47.1376 97.1779 47.8649 99.0621 48.5559 100.853C49.4759 103.236 50.3317 105.454 51.0627 107.467C52.3417 110.989 53.2648 113.954 53.4947 116.177C53.9543 120.62 52.6506 123.763 50.7196 125.909C48.8007 128.041 46.2905 129.158 44.3643 129.62C43.3252 129.87 42.045 129.687 40.757 129.375C39.8381 129.153 38.8687 128.851 37.9339 128.56C37.5518 128.441 37.1756 128.324 36.8109 128.215C35.5268 127.831 34.3966 127.548 33.5444 127.555C33.1233 127.558 32.8125 127.632 32.5941 127.765C32.3894 127.889 32.2305 128.085 32.1438 128.417C31.9595 129.123 32.1478 130.031 32.7075 131.063C33.2621 132.086 34.1519 133.174 35.2662 134.206C37.4986 136.274 40.5636 138.055 43.4532 138.633C44.8805 138.919 46.7958 138.878 48.9476 138.671C50.9557 138.478 53.1323 138.145 55.2578 137.819C55.4022 137.797 55.5464 137.775 55.6903 137.753C57.9432 137.409 60.1263 137.084 61.9346 136.968C62.8393 136.91 63.6644 136.904 64.3666 136.977C65.0606 137.049 65.6789 137.203 66.1359 137.5C67.0759 138.111 67.3574 139.265 67.3334 140.542C67.3089 141.837 66.9696 143.406 66.5008 145.047C66.0304 146.693 65.4199 148.444 64.8377 150.109L64.8069 150.197C64.2337 151.836 63.6924 153.384 63.3304 154.687C63.1558 155.316 63.1601 155.751 63.2526 156.043C63.3391 156.317 63.5145 156.504 63.7923 156.628C64.0856 156.759 64.4983 156.821 65.0287 156.797C65.5545 156.773 66.1665 156.667 66.8379 156.49C69.5361 155.779 72.9924 153.98 75.1924 152.293C77.0961 150.833 78.9214 148.681 80.6144 146.684C80.8716 146.381 81.1257 146.081 81.3766 145.788C82.3174 144.689 83.2171 143.678 84.0476 142.951C84.4637 142.587 84.8755 142.282 85.2788 142.072C85.6813 141.863 86.1003 141.735 86.5209 141.759C86.9948 141.787 87.3496 142.036 87.5804 142.412C87.7975 142.766 87.9048 143.228 87.9505 143.729C88.0422 144.735 87.898 146.078 87.645 147.521C87.2359 149.854 86.5215 152.555 85.9494 154.717C85.8117 155.237 85.6823 155.727 85.5673 156.172C85.4339 156.689 85.4633 157.071 85.5768 157.344C85.6873 157.609 85.8967 157.816 86.2236 157.956C86.906 158.249 88.0631 158.222 89.5464 157.712C92.4813 156.704 96.4007 153.901 99.5659 148.969C102.728 144.043 104.207 138.44 105.043 132.761C105.46 129.921 105.716 127.07 105.942 124.278C105.982 123.783 106.021 123.289 106.06 122.798C106.241 120.523 106.417 118.297 106.664 116.172C106.967 113.555 108.09 109.441 109.527 104.451C109.813 103.457 110.113 102.427 110.421 101.365C111.666 97.0802 113.061 92.2815 114.36 87.2573C117.606 74.7022 120.23 60.8294 118.456 50.1839C114.915 28.9385 96.6228 18.0102 80.2282 18.0102H80.2074L80.1867 18.0081ZM80.249 17.1538C76.1164 16.7544 65.8076 16.8871 57.3722 20.6227C46.7636 25.3208 33.6656 40.1209 36.8264 63.6011C38.3999 75.2904 42.1448 86.3328 45.5984 95.5175C46.3428 97.4971 47.0718 99.3857 47.7627 101.176C48.6788 103.549 49.528 105.749 50.2577 107.759C51.5388 111.287 52.4252 114.161 52.6429 116.265C53.0786 120.478 51.8455 123.378 50.0831 125.336C48.3086 127.308 45.969 128.355 44.1645 128.788C43.3382 128.986 42.2309 128.851 40.9587 128.543C40.0677 128.327 39.1411 128.039 38.2175 127.752C37.829 127.631 37.441 127.51 37.0565 127.395C35.7851 127.014 34.5371 126.691 33.538 126.698C33.0334 126.702 32.5503 126.79 32.1503 127.032C31.7365 127.283 31.4524 127.675 31.3152 128.201C31.0519 129.21 31.3485 130.354 31.9547 131.472C32.5659 132.599 33.5228 133.759 34.6842 134.834C37.0032 136.982 40.2058 138.857 43.2853 139.473C44.8426 139.784 46.8631 139.732 49.0295 139.524C51.0624 139.328 53.2614 138.991 55.3804 138.667C55.5273 138.644 55.6737 138.622 55.8198 138.6C58.081 138.254 60.2255 137.935 61.9893 137.823C62.8708 137.766 63.6428 137.762 64.2779 137.828C64.9211 137.895 65.3801 138.03 65.6692 138.218C66.2216 138.577 66.4997 139.326 66.4771 140.526C66.4549 141.706 66.1413 143.188 65.6774 144.811C65.215 146.429 64.613 148.157 64.0293 149.826L63.9923 149.932C63.4241 151.557 62.8749 153.127 62.5053 154.458C62.3069 155.172 62.2745 155.791 62.4362 156.302C62.6038 156.831 62.9647 157.196 63.4425 157.41C63.9046 157.616 64.4665 157.679 65.067 157.652C65.6721 157.625 66.3471 157.505 67.0561 157.318C69.8793 156.575 73.4367 154.718 75.7135 152.973C77.6966 151.452 79.5894 149.219 81.2749 147.23C81.5306 146.928 81.7814 146.632 82.0271 146.345C82.9702 145.243 83.8334 144.277 84.6117 143.596C85.0001 143.256 85.3542 142.998 85.6743 142.832C85.9952 142.665 86.257 142.602 86.4706 142.614C86.631 142.624 86.7472 142.692 86.8504 142.86C86.9673 143.051 87.057 143.361 87.0976 143.807C87.1785 144.694 87.0522 145.943 86.8015 147.373C86.3995 149.666 85.698 152.318 85.1262 154.48C84.9871 155.006 84.8557 155.502 84.7381 155.958C84.5731 156.598 84.581 157.181 84.7864 157.673C84.9948 158.173 85.3857 158.529 85.8866 158.744C86.8597 159.16 88.2674 159.057 89.8246 158.522C92.9707 157.441 97.035 154.498 100.287 149.432C103.542 144.36 105.046 138.621 105.89 132.885C106.312 130.016 106.569 127.141 106.795 124.347C106.836 123.848 106.875 123.352 106.914 122.86C107.095 120.586 107.27 118.378 107.514 116.271C107.808 113.739 108.905 109.702 110.35 104.688C110.635 103.697 110.934 102.67 111.242 101.609C112.487 97.3237 113.886 92.5096 115.189 87.4716C118.434 74.9192 121.108 60.8864 119.3 50.0432C115.68 28.3202 96.9776 17.1631 80.249 17.1538Z" fill="#563E1B"/>
<path d="M61.2761 63.5443H75.9004V63.8428C79.9295 63.1464 88.2265 62.1714 89.1815 63.8428C90.3753 65.9319 89.1815 70.7072 87.9877 73.5425C86.7939 76.3779 84.7047 79.8101 78.1387 80.2578C71.5727 80.7055 67.8421 78.6163 64.4099 74.5871C61.6641 71.3638 61.1766 65.8822 61.2761 63.5443Z" fill="white"/>
<path d="M94.1064 62.2007L94.1064 66.5283C92.1664 65.7822 85.7795 64.2601 75.7514 64.1407C65.7233 64.0213 59.0379 65.6827 56.9488 66.5283L56.9488 62.2007C60.6297 61.952 69.3943 61.4546 75.0053 61.4546C80.6162 61.4546 90.0772 61.952 94.1064 62.2007Z" fill="black"/>
<path fill-rule="evenodd" clip-rule="evenodd" d="M84.4052 78.8773C82.4642 80.1542 79.9225 80.9204 76.647 80.9204C70.0774 80.9204 66.0019 77.9896 63.6101 74.307C61.2379 70.6545 60.5371 66.2919 60.6137 63.3812L61.641 63.4082C61.5684 66.1682 62.2405 70.3115 64.4719 73.7473C66.6839 77.153 70.4428 79.8928 76.647 79.8928C79.7585 79.8928 82.0953 79.1668 83.8405 78.0188C85.586 76.8705 86.774 75.2773 87.5504 73.487C89.1116 69.887 88.9895 65.5273 88.3805 62.6041L89.3865 62.3945C90.0211 65.4405 90.1678 70.0344 88.4932 73.8958C87.6518 75.8361 86.3459 77.6006 84.4052 78.8773Z" fill="black"/>
<path d="M76.7602 76.9746C68.7418 76.9746 66.3793 67.9874 66.2003 63.4938L84.8143 62.9473C85.4706 67.6231 84.7785 76.9746 76.7602 76.9746Z" fill="black"/>
<path d="M85.0032 67.3589C85.0032 68.796 83.8382 69.961 82.4011 69.961C80.964 69.961 79.799 68.796 79.799 67.3589C79.799 65.9218 80.964 64.7568 82.4011 64.7568C83.8382 64.7568 85.0032 65.9218 85.0032 67.3589Z" fill="white"/>
<path d="M72.4677 72.9448C72.4677 74.0162 71.5992 74.8848 70.5278 74.8848C69.4563 74.8848 68.5878 74.0162 68.5878 72.9448C68.5878 71.8734 69.4563 71.0049 70.5278 71.0049C71.5992 71.0049 72.4677 71.8734 72.4677 72.9448Z" fill="white"/>
<path d="M33.5241 91.6547C33.405 90.6729 34.1044 89.7805 35.0862 89.6614C36.068 89.5424 36.9605 90.2418 37.0795 91.2236L43.756 146.292C43.875 147.274 43.1756 148.166 42.1938 148.285C41.212 148.404 40.3196 147.705 40.2005 146.723L33.5241 91.6547Z" fill="#796B5F"/>
<path fill-rule="evenodd" clip-rule="evenodd" d="M33.0989 91.7067C32.9514 90.4901 33.8181 89.3843 35.0346 89.2368C36.2512 89.0893 37.357 89.956 37.5045 91.1726L44.1809 146.241C44.3284 147.458 43.4618 148.563 42.2452 148.711C41.0287 148.858 39.9229 147.992 39.7754 146.775L33.0989 91.7067ZM35.1377 90.087C34.3906 90.1775 33.8585 90.8566 33.949 91.6036L40.6255 146.672C40.7161 147.419 41.3951 147.951 42.1422 147.861C42.8892 147.77 43.4214 147.091 43.3308 146.344L36.6543 91.2756C36.5638 90.5286 35.8847 89.9964 35.1377 90.087Z" fill="#4E4231"/>
<path d="M31.2811 128.905C30.5349 125.026 32.7733 121.743 35.161 120.847C38.1458 119.504 43.5174 125.324 43.9651 126.667C44.4128 128.01 42.6221 129.652 40.6821 130.995C38.7422 132.338 32.0272 132.785 31.2811 128.905Z" fill="#C4C4C4"/>
<path d="M31.2811 128.905C30.5349 125.026 32.7733 121.743 35.161 120.847C38.1458 119.504 43.5174 125.324 43.9651 126.667C44.4128 128.01 42.6221 129.652 40.6821 130.995C38.7422 132.338 32.0272 132.785 31.2811 128.905Z" fill="#FFE600"/>
<path fill-rule="evenodd" clip-rule="evenodd" d="M43.9338 125.734C44.1342 126.026 44.2956 126.304 44.3713 126.531C44.6715 127.432 44.1967 128.341 43.5452 129.108C42.8747 129.897 41.9058 130.668 40.9258 131.346C40.37 131.731 39.5195 132.026 38.5781 132.201C37.6273 132.378 36.5416 132.441 35.4905 132.334C33.4284 132.124 31.2903 131.221 30.8606 128.986C30.0786 124.92 32.4087 121.43 34.9981 120.451C35.8957 120.053 36.9205 120.209 37.894 120.604C38.8794 121.004 39.8824 121.676 40.7862 122.419C41.6927 123.163 42.517 123.992 43.1451 124.723C43.4591 125.088 43.7274 125.433 43.9338 125.734ZM37.5718 121.397C36.6892 121.039 35.9284 120.971 35.3367 121.237L35.3241 121.243L35.3113 121.248C33.1304 122.066 30.9925 125.137 31.7015 128.824C32.0179 130.47 33.6104 131.282 35.5773 131.482C36.5407 131.58 37.5441 131.522 38.4213 131.359C39.3079 131.194 40.0242 130.929 40.4384 130.642C41.3983 129.978 42.2948 129.257 42.8927 128.553C43.5097 127.827 43.7064 127.245 43.5589 126.802C43.5227 126.693 43.4183 126.496 43.2276 126.218C43.0429 125.949 42.7947 125.629 42.4956 125.281C41.8973 124.585 41.1081 123.791 40.2427 123.08C39.3745 122.367 38.447 121.753 37.5718 121.397Z" fill="#563E1B"/>
<path d="M18.2516 95.823C18.1127 94.6965 18.9132 93.6706 20.0398 93.5316L51.8585 89.6066C52.985 89.4676 54.0109 90.2682 54.1499 91.3948L56.9792 114.331C57.1182 115.458 56.3176 116.484 55.1911 116.623L23.3724 120.548C22.2458 120.687 21.2199 119.886 21.081 118.76L18.2516 95.823Z" fill="white"/>
<path fill-rule="evenodd" clip-rule="evenodd" d="M51.9633 90.4565L20.1446 94.3815C19.4875 94.4626 19.0205 95.061 19.1015 95.7182L21.9309 118.655C22.0119 119.312 22.6104 119.779 23.2675 119.698L55.0862 115.773C55.7434 115.692 56.2104 115.093 56.1293 114.436L53.3 91.4996C53.2189 90.8425 52.6205 90.3755 51.9633 90.4565ZM20.0398 93.5316C18.9132 93.6706 18.1127 94.6965 18.2516 95.823L21.081 118.76C21.2199 119.886 22.2458 120.687 23.3724 120.548L55.1911 116.623C56.3176 116.484 57.1182 115.458 56.9792 114.331L54.1499 91.3948C54.0109 90.2682 52.985 89.4676 51.8585 89.6066L20.0398 93.5316Z" fill="#3D3D3D"/>
<path d="M38.26 111.729L35.6524 112.002L35.0851 106.578L30.0002 107.11L30.5674 112.534L27.9598 112.806L26.6362 100.15L29.2438 99.8777L29.7802 105.006L34.8651 104.474L34.3288 99.3459L36.9364 99.0732L38.26 111.729Z" fill="#474747"/>
<path d="M43.3189 111.2L40.7112 111.473L39.3876 98.8168L41.9953 98.5441L43.3189 111.2Z" fill="#474747"/>
<path d="M47.728 106.811L45.6419 107.029L44.4291 98.2895L47.1063 98.0096L47.728 106.811ZM46.8286 108.293C47.2516 108.249 47.6037 108.338 47.8847 108.561C48.1715 108.783 48.3352 109.088 48.3758 109.476C48.4158 109.858 48.3185 110.188 48.0838 110.464C47.8549 110.74 47.5289 110.9 47.1059 110.944C46.6886 110.988 46.3366 110.899 46.0498 110.677C45.7688 110.455 45.6082 110.152 45.5682 109.77C45.5282 109.387 45.6227 109.058 45.8516 108.782C46.0857 108.5 46.4114 108.337 46.8286 108.293Z" fill="#474747"/>
</g>
<defs>
<clipPath id="clip0">
<path d="M0 12C0 5.37258 5.37258 0 12 0H138C144.627 0 150 5.37258 150 12V138C150 144.627 144.627 150 138 150H12C5.37258 150 0 144.627 0 138V12Z" fill="white"/>
</clipPath>
</defs>
</svg>
