<svg width="430" height="391" viewBox="0 0 430 391" fill="none" xmlns="http://www.w3.org/2000/svg">
<path d="M379.926 25.6165C382.684 16.5131 382.684 11.0672 379.926 9.27871C375.79 6.59601 347.27 17.6501 302.34 12.123C257.41 6.59601 234.011 1 227.999 1C223.991 1 221.987 7.75727 221.987 21.2718" stroke="#A0A0A0" stroke-width="1.72143"/>
<path d="M228.498 66.4743C198.907 71.692 173.967 70.5263 172.793 63.8707C171.62 57.2152 194.657 47.59 224.248 42.3723C253.839 37.1546 278.778 38.3202 279.952 44.9758C281.126 51.6314 258.089 61.2566 228.498 66.4743Z" fill="#747474" stroke="#1D0F02" stroke-width="1.72143"/>
<path fill-rule="evenodd" clip-rule="evenodd" d="M223.399 37.5547C201.805 41.3623 184.946 48.1076 185.741 52.6208C185.754 52.6907 185.77 52.7597 185.791 52.8277L212.46 161.279C213.255 165.792 228.123 166.943 245.668 163.849C263.037 160.787 276.518 154.712 276.014 150.212L275.994 150.076L263.963 39.0563C263.959 38.9812 263.951 38.9066 263.938 38.8326C263.142 34.3194 244.992 33.7472 223.399 37.5547Z" fill="url(#paint0_linear)" stroke="#1D0F02" stroke-width="1.72143"/>
<path d="M244.703 164.019C227.375 167.074 212.681 165.882 211.883 161.356C211.084 156.831 224.485 150.685 241.813 147.629C259.141 144.574 273.835 145.766 274.633 150.292C275.431 154.818 262.031 160.963 244.703 164.019Z" fill="#D8D8D8" fill-opacity="0.468887" stroke="#1D0F02" stroke-width="1.72143"/>
<path fill-rule="evenodd" clip-rule="evenodd" d="M229.831 71.2097C209.57 74.7822 194.081 82.9842 195.235 89.5294C195.27 89.7275 195.32 89.9218 195.384 90.1122L207.524 137.768C206.37 131.223 220.216 123.311 238.451 120.096C256.503 116.913 272.088 119.526 273.518 125.93L273.557 126.125L268.665 77.1909C268.66 76.99 268.64 76.7904 268.605 76.5923C267.451 70.0471 250.091 67.6373 229.831 71.2097Z" fill="#D8D8D8" fill-opacity="0.468887" stroke="#1D0F02" stroke-width="1.72143"/>
<path fill-rule="evenodd" clip-rule="evenodd" d="M241.811 147.629C228.414 149.992 217.351 154.21 213.302 158.124C218.445 160.417 230.283 160.597 243.681 158.234C257.079 155.872 268.142 151.654 272.191 147.74C267.047 145.447 255.209 145.267 241.811 147.629Z" fill="#393939" fill-opacity="0.766636" stroke="#1D0F02" stroke-width="1.72143"/>
<path fill-rule="evenodd" clip-rule="evenodd" d="M219.998 18.2699C196.628 22.3908 178.571 31.0352 179.353 37.6752L179.383 37.8758L173.334 61.2901C177.432 54.9132 198.337 46.9778 224.255 42.4078C250.171 37.8381 272.528 38.1446 278.562 42.7345L264.871 22.8019L264.83 22.6033C263.293 16.0964 243.369 14.149 219.998 18.2699Z" fill="#B3B3B3" stroke="#1D0F02" stroke-width="1.72143" stroke-linejoin="round"/>
<path fill-rule="evenodd" clip-rule="evenodd" d="M392.238 131.265C395.661 131.753 399.767 135.043 404.556 141.134C411.739 150.272 411.739 151.554 411.739 156.454C411.739 161.354 404.915 167.171 397.951 169.814C393.308 171.576 390.383 172.399 389.174 172.281C391.217 163.455 392.238 156.62 392.238 151.778C392.238 146.936 392.238 140.098 392.238 131.265Z" fill="#072053" stroke="#1D0F02" stroke-width="1.72143" stroke-linejoin="round"/>
<path fill-rule="evenodd" clip-rule="evenodd" d="M172.753 74.9237C162.574 73.9464 151.156 73.6206 138.5 73.9464C119.515 74.4351 105.197 77.2731 100.257 78.4043C95.3176 79.5355 86.5953 80.5937 86.5953 88.0096C86.5953 92.9535 109.811 102.927 156.242 117.929H157.716C159.421 110.578 161.491 102.86 163.928 94.7731C166.365 86.6863 169.307 80.0698 172.753 74.9237Z" fill="#005093"/>
<path fill-rule="evenodd" clip-rule="evenodd" d="M312.705 22.193C299.497 18.4714 258.835 15.3894 224.72 28.3398C205.505 35.6337 189.845 48.4857 178.035 67.0498C166.503 85.1768 158.644 108.776 154.768 137.995C150.013 173.845 152.65 197.653 173.628 269.859C175.369 275.852 177.264 281.851 179.165 287.87C183.039 300.137 186.943 312.489 189.614 325.058C191.178 332.42 191.129 340.031 191.092 347.586C191.085 349.015 191.078 350.443 191.082 351.866C191.091 355.504 189.483 359.711 186.814 361.65C185.878 362.329 184.803 362.703 183.619 362.557C182.458 362.415 181.23 361.799 179.936 360.66C177.533 358.545 172.606 357.643 168.574 358.134C166.504 358.386 164.702 359.005 163.554 359.884C162.862 360.414 162.377 361.042 162.109 361.737C161.838 362.44 161.775 363.223 162.002 364.087C162.472 365.871 164.719 369.164 167.197 372.465L167.712 373.148C168.747 374.512 169.804 375.859 170.771 377.083C171.824 378.415 172.758 379.596 173.411 380.477C184.242 395.092 197.595 396.004 209.339 395.108L210.155 395.042C211.783 394.906 213.378 394.741 214.928 394.577C221.609 393.874 227.452 393.045 231.125 395.877C237.148 400.521 243.611 407.411 250.18 414.403C258.296 423.04 266.575 431.822 274.367 436.918C280.472 440.911 286.295 442.617 291.558 440.803C293.175 440.245 294.163 439.351 294.728 438.263C295.309 437.143 295.443 435.753 295.123 434.124C294.485 430.872 291.919 426.478 289.071 421.706C285.906 416.403 282.396 410.593 281.354 405.405C280.704 402.17 281.049 399.174 283.449 396.847C287.059 393.348 290.689 391.873 294.379 391.629C299.2 391.31 304.088 393.001 309.092 394.883L310.206 395.304L311.386 395.751L312.176 396.049C314.855 397.056 317.567 398.031 320.315 398.748C336.857 403.064 352.212 404.033 364.583 398.826C375.267 394.328 383.81 385.262 388.955 369.625C389.341 368.452 389.564 366.955 389.389 365.631C389.216 364.319 388.662 363.191 387.701 362.467C385.562 360.854 383.456 360.493 381.378 360.847C378.947 361.261 376.527 362.76 374.127 364.44L373.622 364.795L372.871 365.326L372.372 365.677C370.147 367.231 367.943 368.74 365.668 368.757C353.58 368.844 343.42 366.289 336.201 359.656C329.687 353.671 325.624 344.398 324.561 330.985C322.675 307.172 350.877 260.722 362.117 242.089C364.691 237.82 366.403 234.952 366.761 234.059C368.89 228.743 371.252 223.705 373.656 218.577C384.366 195.727 395.921 171.1 391.974 112.853C390.642 93.1984 380.9 73.9541 367.018 58.0952C351.914 40.8389 331.926 27.6093 312.705 22.193Z" fill="#FFE816" stroke="#874C15" stroke-width="1.72143"/>
<path fill-rule="evenodd" clip-rule="evenodd" d="M411.739 152.76C411.739 144.688 404.192 139.117 399.34 125.264C394.488 111.412 392.52 34.6317 314.462 15.8223C236.405 -2.98713 197.38 41.4407 184.513 56.5314C171.646 71.6221 208.622 59.9491 284.706 86.9648C335.429 104.975 372.657 120.271 396.391 132.851C401.821 138.014 405.505 142.33 407.441 145.799C410.346 151.004 411.739 160.832 411.739 152.76Z" fill="#1D7ABE" stroke="#14226D" stroke-width="1.72143"/>
<path fill-rule="evenodd" clip-rule="evenodd" d="M390.646 131.279C328.128 96.7783 279.623 75.6887 245.131 68.0109C210.639 60.333 190.433 56.5073 184.513 56.5338C140.685 65.565 115.558 71.3041 109.132 73.751C102.705 76.1978 98.4273 78.1234 96.2995 79.5277C142.148 68.3154 199.131 72.2946 267.247 91.4652C335.363 110.636 376.496 123.907 390.646 131.279Z" fill="#5BA5F0" stroke="#14226D" stroke-width="1.72143"/>
<path d="M99.2834 78.4116C91.5103 81.0533 87.6237 84.2959 87.6237 88.1395C87.6237 93.9048 129.545 108.79 133.17 110.427C135.586 111.519 143.721 114.227 157.573 118.55" stroke="#14226D" stroke-width="1.72143"/>
<path d="M367.547 73.3249C337.956 68.1072 314.919 58.482 316.092 51.8265C317.266 45.1709 342.206 44.0052 371.797 49.2229C401.388 54.4406 424.425 64.0658 423.251 70.7214C422.077 77.377 397.138 78.5426 367.547 73.3249Z" fill="#747474" stroke="#1D0F02" stroke-width="1.72143"/>
<path fill-rule="evenodd" clip-rule="evenodd" d="M372.647 44.4013C351.053 40.5938 332.903 41.1659 332.107 45.6792C332.095 45.7491 332.087 45.8195 332.083 45.8905L320.051 156.922C319.255 161.436 332.833 167.602 350.378 170.696C367.747 173.758 382.492 172.661 383.558 168.26L383.586 168.125L410.251 59.6862C410.273 59.6143 410.291 59.5414 410.304 59.4674C411.1 54.9541 394.24 48.2088 372.647 44.4013Z" fill="#C6803C" stroke="#1D0F02" stroke-width="1.72143"/>
<path d="M349.411 170.53C332.083 167.475 318.683 161.329 319.481 156.803C320.279 152.278 334.973 151.086 352.301 154.141C369.629 157.196 383.03 163.342 382.232 167.868C381.434 172.394 366.739 173.586 349.411 170.53Z" fill="#D8D8D8" fill-opacity="0.468887" stroke="#1D0F02" stroke-width="1.72143"/>
<path fill-rule="evenodd" clip-rule="evenodd" d="M367.179 78.2302C346.919 74.6577 329.559 77.0676 328.405 83.6128C328.37 83.8108 328.35 84.0104 328.346 84.2114L323.453 133.146C324.608 126.6 340.325 123.901 358.56 127.116C376.612 130.299 390.363 138.086 389.516 144.592L389.486 144.789L401.626 97.1326C401.69 96.9422 401.74 96.7479 401.775 96.5499C402.929 90.0047 387.44 81.8027 367.179 78.2302Z" fill="#D8D8D8" fill-opacity="0.468887" stroke="#1D0F02" stroke-width="1.72143"/>
<path fill-rule="evenodd" clip-rule="evenodd" d="M352.302 154.141C338.904 151.778 327.066 151.958 321.922 154.251C325.972 158.165 337.034 162.383 350.432 164.746C363.83 167.108 375.668 166.928 380.812 164.635C376.762 160.721 365.7 156.503 352.302 154.141Z" fill="#393939" fill-opacity="0.766636" stroke="#1D0F02" stroke-width="1.72143"/>
<path fill-rule="evenodd" clip-rule="evenodd" d="M376.046 25.1242C352.676 21.0033 332.752 22.9508 331.215 29.4576L331.174 29.6562L317.482 49.5897C323.514 44.999 345.873 44.6921 371.79 49.2621C397.706 53.8318 418.611 61.7665 422.71 68.1432L416.662 44.7301L416.692 44.5295C417.473 37.8895 399.417 29.2451 376.046 25.1242Z" fill="#E8E8E8" stroke="#1D0F02" stroke-width="1.72143" stroke-linejoin="round"/>
<path d="M375.809 213.319C374.101 239.23 385.675 259.896 383.849 268.679C382.023 277.463 374.87 275.439 335.687 259.391C296.504 243.343 275.756 255.442 274.297 255.442" stroke="#626262" stroke-width="1.72143" stroke-linecap="round"/>
<path fill-rule="evenodd" clip-rule="evenodd" d="M347.757 316.277C328.514 319.048 313.464 324.503 314.03 328.533C314.04 328.601 314.054 328.668 314.072 328.735L334.34 425.551C334.339 425.803 334.356 426.054 334.391 426.305C335.336 433.028 348.961 436.671 364.822 434.442C380.301 432.267 392.19 425.303 391.877 418.72L392.035 418.698L384.74 318.803C384.74 318.734 384.735 318.665 384.725 318.597C384.153 314.527 367.864 313.451 348.342 316.194L347.757 316.277Z" fill="#C6803C" stroke="#1D0F02" stroke-width="1.72143"/>
<path fill-rule="evenodd" clip-rule="evenodd" d="M319.867 354.159L319.574 354.216L328.132 395.852C328.138 395.959 328.149 396.066 328.164 396.173C328.201 396.441 328.267 396.702 328.359 396.957L328.605 398.149L328.973 398.09C332.335 402.667 345.287 404.667 360.213 402.569C376.437 400.289 389.084 393.999 389.293 388.27L389.849 388.179L386.568 345.105L386.06 345.139C383.778 350.492 370.659 356.138 354.278 358.44C337.592 360.785 323.203 358.862 319.867 354.159Z" fill="#D8D8D8" fill-opacity="0.468887" stroke="#1D0F02" stroke-width="1.72143"/>
<path fill-rule="evenodd" clip-rule="evenodd" d="M307.714 307.506L305.204 322.977C305.034 323.428 304.961 323.872 304.989 324.308L304.985 324.337L304.991 324.337L305.01 324.518C305.855 330.53 326.078 332.658 350.179 329.271C373.998 325.923 392.691 318.442 392.31 312.464L392.318 312.463L392.308 312.443C392.304 312.379 392.297 312.316 392.288 312.252C392.2 311.626 391.902 311.043 391.412 310.503L385 296.644L307.714 307.506Z" fill="#CCCCCC" stroke="#1D0F02" stroke-width="1.72143" stroke-linejoin="round"/>
<path d="M347.857 312.749C326.515 315.748 308.529 313.306 307.684 307.294C306.839 301.282 323.455 293.977 344.798 290.978C366.14 287.978 384.126 290.42 384.971 296.432C385.816 302.444 369.2 309.749 347.857 312.749Z" fill="#EFEFEF" stroke="#1D0F02" stroke-width="1.72143" stroke-linejoin="round"/>
<path d="M322.561 308.323C318.705 308.865 315.415 308.136 315.212 306.696C315.01 305.255 317.972 303.648 321.828 303.106C325.684 302.564 328.974 303.292 329.177 304.733C329.379 306.174 326.417 307.781 322.561 308.323Z" fill="black" fill-opacity="0.519422"/>
<path fill-rule="evenodd" clip-rule="evenodd" d="M362.398 374.85C361.187 380.567 359.189 382.004 356.251 384.558C353.313 387.111 352.488 388.62 352.839 391.122C353.001 392.271 353.323 393.266 353.806 394.104C355.571 395.137 357.507 395.597 359.462 395.322C365.488 394.475 369.415 386.976 368.234 378.572C367.564 373.807 365.397 369.775 362.547 367.33C363.13 369.121 363.081 371.628 362.398 374.85ZM355.185 364.888C349.16 365.735 345.233 373.234 346.414 381.638C346.92 385.237 348.28 388.418 350.143 390.812C349.929 388.718 350.384 387.002 351.507 385.664C352.215 384.821 353.078 384.266 353.976 383.71L354.295 383.514C356.425 382.198 358.676 380.694 359.5 375.257C360.16 370.902 359.665 367.48 358.014 364.989C357.087 364.794 356.138 364.754 355.185 364.888Z" fill="#22140F"/>
<path fill-rule="evenodd" clip-rule="evenodd" d="M368.936 97.0753C366.707 103.124 364.273 104.386 360.626 106.72C356.979 109.055 355.831 110.574 355.831 113.356C355.831 114.635 356.033 115.769 356.438 116.758C358.229 118.154 360.3 118.952 362.506 118.952C369.303 118.952 374.814 111.375 374.814 102.028C374.814 96.7282 373.042 91.9971 370.268 88.894C370.638 90.9362 370.194 93.6636 368.936 97.0753ZM362.506 85.1045C355.708 85.1045 350.197 92.6816 350.197 102.028C350.197 106.03 351.207 109.707 352.896 112.604C352.985 110.288 353.755 108.487 355.206 107.2C358.378 104.386 363.076 105.635 365.667 97.0753C367.074 92.4275 367.058 88.6191 365.62 85.6501C364.624 85.2942 363.581 85.1045 362.506 85.1045Z" fill="#22140F"/>
<path fill-rule="evenodd" clip-rule="evenodd" d="M390.144 388.038C380.309 383.146 370.692 364.037 374.735 359.479C378.777 354.921 400.906 351.429 407.887 360.664C414.867 369.899 399.978 392.929 390.144 388.038Z" fill="#FFE738" stroke="#704217" stroke-width="1.72143"/>
<path fill-rule="evenodd" clip-rule="evenodd" d="M162.614 313.088C160.833 313.021 159.551 313.599 158.676 314.641C157.297 316.282 156.94 319.58 158.357 324.883C160.765 333.899 167.983 349.056 180.055 370.338C180.181 370.562 180.308 370.784 180.437 371.004C180.687 371.037 180.938 371.071 181.189 371.104C220.735 376.396 246.915 379.992 259.73 381.894C264.889 382.659 268.881 382.831 271.58 382.451C273.178 382.226 274.373 381.795 275.183 381.236C276.309 380.458 276.837 379.435 276.837 378.212C276.837 375.303 272.257 370.12 260.772 362.925C250.576 356.536 234.18 347.596 217.419 338.908L215.278 337.801C197.068 328.402 178.719 319.441 167.684 314.499C165.657 313.591 163.963 313.139 162.614 313.088Z" fill="#C4C4C4" stroke="#1D0F02" stroke-width="1.72143"/>
<path fill-rule="evenodd" clip-rule="evenodd" d="M12.6036 202.522C10.3194 201.74 8.3942 201.485 6.83191 201.687C4.96454 201.928 3.54573 202.782 2.54913 204.208C0.907883 206.557 0.481934 210.816 1.70152 217.151C2.65881 222.124 4.35153 230.133 6.40567 239.395L6.83504 241.325C8.28316 247.818 9.89053 254.847 11.5347 261.828L12.0286 263.919L12.3878 265.432C16.1624 281.292 20.0195 296.371 22.4998 303.739C28.1411 320.498 31.9029 324.926 46.7625 330.186C47.3012 330.377 47.9576 330.602 48.7226 330.858L49.3166 331.056C58.2212 334.011 79.709 340.605 102.176 347.443L103.727 347.915L104.503 348.151L107.807 349.156C114.739 351.264 121.672 353.368 128.269 355.37C148.387 361.476 165.369 366.63 169.61 368.025C170.688 368.379 171.742 368.738 172.765 369.086C178.562 371.056 183.375 372.473 185.946 371.571C186.726 371.297 187.358 370.856 187.842 370.24C188.273 369.691 188.591 368.99 188.743 368.097C188.965 366.793 188.819 364.976 188.141 362.519C187.249 359.286 185.709 352.818 183.765 344.654C178.896 324.216 171.505 293.201 165.392 275.484C164.934 274.155 164.495 272.876 164.072 271.644C156.358 249.154 153.737 242.132 136.841 236.727C125.281 233.03 83.8655 221.627 12.6036 202.522Z" fill="#9A9A9A" stroke="#1D0F02" stroke-width="1.72143"/>
<path fill-rule="evenodd" clip-rule="evenodd" d="M89.5095 327.951C77.7811 325.885 70.6109 326.43 66.5205 328.929C64.1091 330.402 62.6488 332.528 61.9503 335.281C61.2571 338.013 61.3437 341.412 62.0163 345.428C63.1448 352.165 70.4292 358.414 79.624 362.709C89.9269 367.521 102.364 369.862 109.819 368.13C119.239 365.942 125.9 362.011 129.897 356.462C130.114 356.161 130.324 355.854 130.525 355.538C130.317 355.244 130.106 354.951 129.892 354.658C118.964 339.648 105.491 330.766 89.5095 327.951Z" fill="#FFE816" stroke="#704217" stroke-width="1.72143"/>
<path d="M254.948 168.612L217.908 162.292L217.777 163.06C207.878 159.528 187.291 153.434 184.139 157.32C180.199 162.177 181.127 174.974 182.906 182.782C184.685 190.59 188.471 200.32 204.904 204.309C221.338 208.298 231.703 204.537 242.164 195.658C250.533 188.555 254.174 174.668 254.948 168.612Z" fill="white"/>
<path fill-rule="evenodd" clip-rule="evenodd" d="M189.583 198.122C193.954 202.259 200.072 205.334 208.382 206.752C225.052 209.597 236.691 203.809 244.384 195.35C252.011 186.965 255.706 176.029 256.791 168.497L254 168.097C252.975 175.213 249.46 185.56 242.316 193.415C235.238 201.197 224.546 206.606 208.863 203.931C200.997 202.588 195.414 199.718 191.512 196.025C187.61 192.332 185.308 187.737 184.13 182.811C181.762 172.903 183.979 161.763 186.8 154.519L184.178 153.479C181.23 161.049 178.837 172.82 181.389 183.499C182.672 188.867 185.213 193.986 189.583 198.122Z" fill="black"/>
<path d="M209.837 196.46C230.145 199.925 240.073 177.832 242.498 166.353L195.593 156.903C191.879 168.645 189.528 192.994 209.837 196.46Z" fill="black"/>
<path d="M223.527 170.826C222.767 175.277 225.705 179.492 230.088 180.24C234.472 180.988 238.641 177.986 239.401 173.535C240.16 169.083 237.222 164.869 232.839 164.121C228.455 163.373 224.286 166.375 223.527 170.826Z" fill="white"/>
<path d="M265.706 171.634L267.605 160.504C262.364 161.585 245.519 162.739 220.068 158.712C194.617 154.686 178.414 147.524 173.494 144.446L171.595 155.576C180.808 157.806 202.789 162.873 217 165.298C231.211 167.723 255.392 170.533 265.706 171.634Z" fill="black"/>
<path fill-rule="evenodd" clip-rule="evenodd" d="M82.3315 278.034C86.5685 279.204 89.4802 282.651 89.967 284.554C90.2354 285.604 90.5379 287.497 90.8201 289.263C91.0667 290.806 91.2978 292.252 91.477 292.953C91.5134 293.095 91.5534 293.246 91.5949 293.402C91.9914 294.898 92.522 296.9 91.2919 296.655C90.5315 296.503 90.0078 295.424 89.5101 294.397C89.1184 293.59 88.7428 292.815 88.2805 292.553C87.7946 292.277 87.6752 292.965 87.5391 293.748C87.4056 294.517 87.256 295.379 86.7281 295.512C86.6848 295.55 86.6347 295.563 86.5777 295.549C86.5472 295.542 86.5167 295.534 86.4863 295.523C86.4585 295.52 86.4299 295.514 86.4005 295.508C86.344 295.494 86.2811 295.455 86.2125 295.392C85.5442 294.979 84.9062 293.932 84.3366 292.997C83.7568 292.046 83.248 291.211 82.8502 291.279C82.4718 291.345 82.4696 292.03 82.4673 292.746C82.4643 293.654 82.4613 294.611 81.6863 294.402C80.4326 294.065 79.9419 292.072 79.5751 290.583C79.5368 290.427 79.4998 290.277 79.4634 290.135C79.2842 289.434 78.7582 287.919 78.1968 286.302C77.5544 284.452 76.8657 282.468 76.5973 281.419C76.1106 279.515 77.5179 277.083 81.6566 277.876C81.7309 277.874 81.8135 277.89 81.9047 277.925C81.9407 277.934 81.9766 277.942 82.0125 277.951C82.0355 277.956 82.0587 277.962 82.0819 277.967C82.1646 277.973 82.2478 277.996 82.3315 278.034Z" fill="white"/>
<defs>
<linearGradient id="paint0_linear" x1="234.206" y1="55.7822" x2="191.793" y2="158.791" gradientUnits="userSpaceOnUse">
<stop stop-color="#7B5128"/>
<stop offset="1" stop-color="#FFA439"/>
</linearGradient>
</defs>
</svg>
