<svg width="185" height="15" viewBox="0 0 185 15" fill="none" xmlns="http://www.w3.org/2000/svg">
<path d="M0 1.73678H4.40481C5.94921 1.73678 7.09663 2.07938 7.84708 2.76457C8.59753 3.43889 8.97276 4.34704 8.97276 5.48903C8.97276 6.63101 8.59753 7.5446 7.84708 8.22979C7.09663 8.90411 5.94921 9.24127 4.40481 9.24127H2.44711V13.1567H0V1.73678ZM4.1601 7.21832C5.03018 7.21832 5.63924 7.07149 5.98727 6.77784C6.34618 6.48419 6.52564 6.05458 6.52564 5.48903C6.52564 4.93435 6.34618 4.51018 5.98727 4.21653C5.63924 3.912 5.03018 3.75973 4.1601 3.75973H2.44711V7.21832H4.1601Z" fill="#1C1C1C"/>
<path d="M10.8495 1.73678H15.499C16.2169 1.73678 16.8422 1.82379 17.3752 1.99781C17.919 2.17183 18.3703 2.42198 18.7292 2.74826C19.0881 3.06366 19.36 3.44976 19.5449 3.90656C19.7298 4.35248 19.8223 4.85278 19.8223 5.40746C19.8223 6.20141 19.6156 6.89204 19.2023 7.47935C18.7999 8.05578 18.1909 8.46907 17.3752 8.71922L20.1486 13.1567H17.3099L14.9117 8.98024H13.2966V13.1567H10.8495V1.73678ZM15.0096 7.05518C15.4664 7.05518 15.8416 7.02255 16.1353 6.9573C16.4398 6.88116 16.6845 6.77784 16.8694 6.64733C17.0543 6.50594 17.1848 6.33192 17.261 6.12528C17.3371 5.91863 17.3752 5.67936 17.3752 5.40746C17.3752 5.13556 17.3371 4.89628 17.261 4.68964C17.1848 4.48299 17.0543 4.31441 16.8694 4.1839C16.6845 4.04251 16.4398 3.93919 16.1353 3.87393C15.8416 3.7978 15.4664 3.75973 15.0096 3.75973H13.2966V7.05518H15.0096Z" fill="#1C1C1C"/>
<path d="M26.9278 13.3524C26.21 13.3524 25.5248 13.2437 24.8722 13.0261C24.2306 12.8086 23.6596 12.466 23.1593 11.9984C22.6698 11.5307 22.2783 10.9325 21.9847 10.2038C21.691 9.46423 21.5442 8.57239 21.5442 7.52829V7.20201C21.5442 6.20141 21.691 5.34764 21.9847 4.64069C22.2783 3.92287 22.6698 3.33557 23.1593 2.87877C23.6596 2.42198 24.2306 2.08482 24.8722 1.8673C25.5248 1.64978 26.21 1.54102 26.9278 1.54102C27.6456 1.54102 28.3254 1.64978 28.9671 1.8673C29.6196 2.08482 30.1906 2.42198 30.6801 2.87877C31.1804 3.33557 31.5773 3.92287 31.871 4.64069C32.1646 5.34764 32.3115 6.20141 32.3115 7.20201V7.52829C32.3115 8.57239 32.1646 9.46423 31.871 10.2038C31.5773 10.9325 31.1804 11.5307 30.6801 11.9984C30.1906 12.466 29.6196 12.8086 28.9671 13.0261C28.3254 13.2437 27.6456 13.3524 26.9278 13.3524ZM26.9278 11.2968C27.2976 11.2968 27.6511 11.237 27.9882 11.1174C28.3363 10.9869 28.6408 10.7748 28.9018 10.4811C29.1629 10.1875 29.3695 9.80139 29.5218 9.32284C29.6849 8.84429 29.7665 8.24611 29.7665 7.52829V7.20201C29.7665 6.52769 29.6849 5.96214 29.5218 5.50534C29.3695 5.04855 29.1629 4.67876 28.9018 4.39598C28.6408 4.1132 28.3363 3.912 27.9882 3.79236C27.6511 3.66185 27.2976 3.59659 26.9278 3.59659C26.558 3.59659 26.1991 3.66185 25.8511 3.79236C25.5139 3.912 25.2148 4.1132 24.9538 4.39598C24.6928 4.67876 24.4807 5.04855 24.3176 5.50534C24.1653 5.96214 24.0892 6.52769 24.0892 7.20201V7.52829C24.0892 8.24611 24.1653 8.84429 24.3176 9.32284C24.4807 9.80139 24.6928 10.1875 24.9538 10.4811C25.2148 10.7748 25.5139 10.9869 25.8511 11.1174C26.1991 11.237 26.558 11.2968 26.9278 11.2968Z" fill="#1C1C1C"/>
<path d="M34.4285 1.73678H42.2593V3.75973H36.8756V6.63101H41.7698V8.58871H36.8756V13.1567H34.4285V1.73678Z" fill="#1C1C1C"/>
<path d="M48.1298 13.3524C46.618 13.3524 45.476 13.0425 44.7038 12.4225C43.9316 11.8026 43.5238 10.9869 43.4803 9.9754H45.9274C45.9709 10.1929 46.0361 10.3833 46.1231 10.5464C46.2102 10.7095 46.3407 10.8455 46.5147 10.9542C46.6887 11.063 46.9062 11.15 47.1672 11.2153C47.4283 11.2697 47.7491 11.2968 48.1298 11.2968C48.9129 11.2968 49.473 11.1935 49.8101 10.9869C50.1582 10.7694 50.3322 10.4648 50.3322 10.0733C50.3322 9.59474 50.1038 9.23583 49.647 8.99656C49.2011 8.74641 48.4832 8.52345 47.4935 8.32768C46.9062 8.21892 46.3842 8.07753 45.9274 7.90351C45.4706 7.71862 45.0845 7.49022 44.7691 7.21832C44.4537 6.93554 44.2144 6.59838 44.0513 6.20685C43.8881 5.81531 43.8065 5.34764 43.8065 4.80383C43.8065 4.31441 43.9044 3.86849 44.1002 3.46608C44.3068 3.06366 44.5951 2.72107 44.9648 2.43829C45.3455 2.14464 45.8023 1.92168 46.3352 1.76941C46.8682 1.61715 47.4663 1.54102 48.1298 1.54102C48.8476 1.54102 49.4675 1.61715 49.9896 1.76941C50.5116 1.92168 50.9467 2.1392 51.2947 2.42198C51.6536 2.70475 51.9255 3.04191 52.1104 3.43345C52.2953 3.82499 52.4095 4.26547 52.453 4.75489H50.0059C49.9298 4.36335 49.7557 4.07514 49.4838 3.89025C49.2119 3.69448 48.7606 3.59659 48.1298 3.59659C47.4881 3.59659 47.015 3.69991 46.7104 3.90656C46.4059 4.1132 46.2537 4.39054 46.2537 4.73858C46.2537 5.15187 46.4603 5.48359 46.8736 5.73374C47.2978 5.97301 47.9612 6.17966 48.8639 6.35367C49.4838 6.47331 50.0331 6.62014 50.5116 6.79415C51.0011 6.96817 51.4089 7.19113 51.7352 7.46303C52.0724 7.73493 52.3279 8.07209 52.502 8.47451C52.6868 8.86605 52.7793 9.33915 52.7793 9.89383C52.7793 10.9488 52.3714 11.7917 51.5557 12.4225C50.7509 13.0425 49.6089 13.3524 48.1298 13.3524Z" fill="#1C1C1C"/>
<path d="M79.9922 1.73633H87.823V3.75928H82.4393V6.63056H87.3335V8.58825H82.4393V13.1562H79.9922V1.73633Z" fill="#1C1C1C"/>
<path d="M92.6254 3.75928H88.9547V1.73633H98.7432V3.75928H95.0725V13.1562H92.6254V3.75928Z" fill="#1C1C1C"/>
<path d="M54.4785 7.10453C54.4785 3.1808 57.6593 0 61.583 0H71.0557C74.9795 0 78.1603 3.1808 78.1603 7.10453C78.1603 11.0282 74.9795 14.2091 71.0557 14.2091H61.583C57.6593 14.2091 54.4785 11.0282 54.4785 7.10453Z" fill="#FFE924"/>
<path d="M54.4785 7.10453C54.4785 3.1808 57.6593 0 61.583 0H71.0557C74.9795 0 78.1603 3.1808 78.1603 7.10453C78.1603 11.0282 74.9795 14.2091 71.0557 14.2091H61.583C57.6593 14.2091 54.4785 11.0282 54.4785 7.10453Z" fill="#FFE924"/>
<path d="M64.4775 7.10463C64.4775 3.47156 67.4227 0.526367 71.0558 0.526367C74.6889 0.526367 77.6341 3.47156 77.6341 7.10463C77.6341 10.7377 74.6889 13.6829 71.0558 13.6829C67.4227 13.6829 64.4775 10.7377 64.4775 7.10463Z" fill="white"/>
<path d="M114.505 8.37844L112.786 3.37554L110.959 8.37844H114.505ZM111.985 1.69506H113.719L117.828 13.019H116.147L114.999 9.62724H110.52L109.294 13.019H107.722L111.985 1.69506Z" fill="#898989"/>
<path d="M123.837 1.38672C125.271 1.38672 126.383 1.76444 127.175 2.51989C127.966 3.27533 128.405 4.13356 128.493 5.09457H126.997C126.828 4.36482 126.488 3.78667 125.98 3.36013C125.476 2.93358 124.767 2.72031 123.852 2.72031C122.737 2.72031 121.835 3.11345 121.146 3.89973C120.463 4.68087 120.121 5.88085 120.121 7.49966C120.121 8.82554 120.429 9.90218 121.046 10.7296C121.668 11.5518 122.593 11.9629 123.821 11.9629C124.952 11.9629 125.813 11.5287 126.404 10.6602C126.717 10.2028 126.951 9.60154 127.105 8.85637H128.601C128.467 10.0486 128.025 11.0482 127.275 11.855C126.375 12.8263 125.163 13.312 123.636 13.312C122.321 13.312 121.216 12.9137 120.322 12.1171C119.145 11.0636 118.556 9.43709 118.556 7.23756C118.556 5.56736 118.998 4.1978 119.882 3.12887C120.838 1.96743 122.156 1.38672 123.837 1.38672Z" fill="#898989"/>
<path d="M136.128 8.37844L134.409 3.37554L132.582 8.37844H136.128ZM133.608 1.69506H135.342L139.451 13.019H137.77L136.622 9.62724H132.143L130.917 13.019H129.345L133.608 1.69506Z" fill="#898989"/>
<path d="M145.036 11.7086C145.555 11.7086 145.981 11.6546 146.315 11.5467C146.911 11.3463 147.4 10.9608 147.78 10.3904C148.083 9.93301 148.302 9.34716 148.435 8.63282C148.512 8.20628 148.551 7.81057 148.551 7.4457C148.551 6.04273 148.271 4.95324 147.711 4.17724C147.156 3.40124 146.259 3.01324 145.02 3.01324H142.299V11.7086H145.036ZM140.757 1.69506H145.344C146.901 1.69506 148.109 2.24751 148.967 3.35242C149.733 4.3494 150.116 5.62646 150.116 7.1836C150.116 8.38615 149.89 9.47306 149.437 10.4444C148.641 12.1608 147.271 13.019 145.329 13.019H140.757V1.69506Z" fill="#898989"/>
<path d="M152.085 1.69506H160.341V3.08262H153.581V6.52066H159.833V7.83113H153.581V11.67H160.457V13.019H152.085V1.69506Z" fill="#898989"/>
<path d="M162.273 1.69506H164.469L167.723 11.2692L170.952 1.69506H173.126V13.019H171.669V6.33565C171.669 6.1044 171.674 5.72153 171.685 5.18707C171.695 4.65261 171.7 4.0796 171.7 3.46805L168.47 13.019H166.952L163.699 3.46805V3.81493C163.699 4.09244 163.704 4.51642 163.714 5.08686C163.729 5.65216 163.737 6.06842 163.737 6.33565V13.019H162.273V1.69506Z" fill="#898989"/>
<path d="M174.425 1.69506H176.214L179.467 7.13735L182.72 1.69506H184.516L180.238 8.45553V13.019H178.704V8.45553L174.425 1.69506Z" fill="#898989"/>
</svg>
