<svg width="257" height="20" viewBox="0 0 257 20" fill="none" xmlns="http://www.w3.org/2000/svg">
<path d="M0.845703 2.41094H6.96069C9.1047 2.41094 10.6976 2.88655 11.7394 3.83777C12.7812 4.77389 13.3022 6.03463 13.3022 7.62C13.3022 9.20536 12.7812 10.4737 11.7394 11.4249C10.6976 12.361 9.1047 12.8291 6.96069 12.8291H4.24292V18.2646H0.845703V2.41094ZM6.62097 10.0207C7.82886 10.0207 8.67439 9.81686 9.15755 9.4092C9.65581 9.00153 9.90494 8.40513 9.90494 7.62C9.90494 6.84996 9.65581 6.26111 9.15755 5.85345C8.67439 5.43068 7.82886 5.2193 6.62097 5.2193H4.24292V10.0207H6.62097Z" fill="white"/>
<path d="M15.9076 2.41094H22.3623C23.3588 2.41094 24.227 2.53173 24.9668 2.77331C25.7217 3.01489 26.3483 3.36216 26.8466 3.81512C27.3449 4.25298 27.7223 4.78899 27.979 5.42313C28.2357 6.04218 28.364 6.73672 28.364 7.50676C28.364 8.60896 28.0771 9.56773 27.5034 10.3831C26.9447 11.1833 26.0992 11.757 24.9668 12.1043L28.817 18.2646H24.8762L21.5469 12.4667H19.3048V18.2646H15.9076V2.41094ZM21.6828 9.79421C22.317 9.79421 22.8379 9.74892 23.2455 9.65832C23.6683 9.55263 24.008 9.40919 24.2647 9.22801C24.5214 9.03173 24.7026 8.79015 24.8083 8.50327C24.914 8.2164 24.9668 7.88422 24.9668 7.50676C24.9668 7.12929 24.914 6.79712 24.8083 6.51024C24.7026 6.22336 24.5214 5.98933 24.2647 5.80815C24.008 5.61187 23.6683 5.46843 23.2455 5.37784C22.8379 5.27215 22.317 5.2193 21.6828 5.2193H19.3048V9.79421H21.6828Z" fill="white"/>
<path d="M38.2283 18.5364C37.2318 18.5364 36.2806 18.3854 35.3747 18.0834C34.4838 17.7814 33.6912 17.3058 32.9966 16.6566C32.3172 16.0073 31.7736 15.1769 31.3659 14.1653C30.9583 13.1386 30.7544 11.9005 30.7544 10.451V9.99805C30.7544 8.60896 30.9583 7.42371 31.3659 6.4423C31.7736 5.44578 32.3172 4.63045 32.9966 3.9963C33.6912 3.36216 34.4838 2.8941 35.3747 2.59212C36.2806 2.29015 37.2318 2.13916 38.2283 2.13916C39.2248 2.13916 40.1685 2.29015 41.0593 2.59212C41.9653 2.8941 42.7579 3.36216 43.4374 3.9963C44.1319 4.63045 44.683 5.44578 45.0907 6.4423C45.4984 7.42371 45.7022 8.60896 45.7022 9.99805V10.451C45.7022 11.9005 45.4984 13.1386 45.0907 14.1653C44.683 15.1769 44.1319 16.0073 43.4374 16.6566C42.7579 17.3058 41.9653 17.7814 41.0593 18.0834C40.1685 18.3854 39.2248 18.5364 38.2283 18.5364ZM38.2283 15.6827C38.7417 15.6827 39.2324 15.5997 39.7004 15.4336C40.1836 15.2524 40.6064 14.958 40.9687 14.5503C41.3311 14.1426 41.618 13.6066 41.8294 12.9423C42.0558 12.278 42.1691 11.4475 42.1691 10.451V9.99805C42.1691 9.06192 42.0558 8.27679 41.8294 7.64264C41.618 7.0085 41.3311 6.49514 40.9687 6.10258C40.6064 5.71001 40.1836 5.43068 39.7004 5.2646C39.2324 5.08341 38.7417 4.99282 38.2283 4.99282C37.715 4.99282 37.2167 5.08341 36.7335 5.2646C36.2655 5.43068 35.8503 5.71001 35.4879 6.10258C35.1255 6.49514 34.8311 7.0085 34.6046 7.64264C34.3932 8.27679 34.2876 9.06192 34.2876 9.99805V10.451C34.2876 11.4475 34.3932 12.278 34.6046 12.9423C34.8311 13.6066 35.1255 14.1426 35.4879 14.5503C35.8503 14.958 36.2655 15.2524 36.7335 15.4336C37.2167 15.5997 37.715 15.6827 38.2283 15.6827Z" fill="white"/>
<path d="M48.6411 2.41094H59.5122V5.2193H52.0383V9.20536H58.8328V11.9231H52.0383V18.2646H48.6411V2.41094Z" fill="white"/>
<path d="M67.662 18.5364C65.5633 18.5364 63.9779 18.1061 62.9059 17.2454C61.8339 16.3848 61.2677 15.2524 61.2073 13.8482H64.6045C64.6649 14.1502 64.7555 14.4144 64.8763 14.6409C64.9971 14.8674 65.1782 15.0561 65.4198 15.2071C65.6614 15.3581 65.9634 15.4789 66.3258 15.5695C66.6881 15.645 67.1335 15.6827 67.662 15.6827C68.7491 15.6827 69.5267 15.5393 69.9947 15.2524C70.4779 14.9504 70.7195 14.5277 70.7195 13.9841C70.7195 13.3198 70.4024 12.8215 69.7683 12.4893C69.1492 12.1421 68.1527 11.8325 66.7787 11.5608C65.9634 11.4098 65.2386 11.2135 64.6045 10.9719C63.9703 10.7152 63.4343 10.3982 62.9965 10.0207C62.5586 9.62813 62.2264 9.16007 62 8.61651C61.7735 8.07296 61.6602 7.42371 61.6602 6.66878C61.6602 5.98933 61.7961 5.37029 62.0679 4.81163C62.3548 4.25298 62.7549 3.77737 63.2683 3.3848C63.7967 2.97714 64.4309 2.66762 65.1707 2.45623C65.9105 2.24485 66.741 2.13916 67.662 2.13916C68.6585 2.13916 69.5191 2.24485 70.2439 2.45623C70.9686 2.66762 71.5726 2.96959 72.0557 3.36216C72.554 3.75472 72.9314 4.22278 73.1881 4.76634C73.4448 5.30989 73.6033 5.92139 73.6637 6.60083H70.2665C70.1608 6.05728 69.9192 5.65716 69.5418 5.40048C69.1643 5.12871 68.5377 4.99282 67.662 4.99282C66.7712 4.99282 66.1144 5.13626 65.6916 5.42313C65.2688 5.71001 65.0574 6.09503 65.0574 6.57818C65.0574 7.15194 65.3443 7.61245 65.9181 7.95972C66.5069 8.29189 67.428 8.57877 68.6811 8.82035C69.5418 8.98643 70.3043 9.19026 70.9686 9.43184C71.648 9.67342 72.2142 9.98295 72.6672 10.3604C73.1353 10.7379 73.4901 11.2059 73.7317 11.7646C73.9883 12.3082 74.1167 12.9649 74.1167 13.735C74.1167 15.1996 73.5505 16.3697 72.4181 17.2454C71.3008 18.1061 69.7154 18.5364 67.662 18.5364Z" fill="white"/>
<path d="M111.894 2.41113H122.765V5.2195H115.292V9.20556H122.086V11.9233H115.292V18.2648H111.894V2.41113Z" fill="white"/>
<path d="M129.433 5.2195H124.337V2.41113H137.926V5.2195H132.83V18.2648H129.433V5.2195Z" fill="white"/>
<path d="M76.4758 9.86288C76.4758 4.41576 80.8916 0 86.3387 0H99.4892C104.936 0 109.352 4.41576 109.352 9.86288C109.352 15.31 104.936 19.7258 99.4892 19.7258H86.3387C80.8916 19.7258 76.4758 15.31 76.4758 9.86288Z" fill="#FFE924"/>
<path d="M76.4758 9.86288C76.4758 4.41576 80.8916 0 86.3387 0H99.4892C104.936 0 109.352 4.41576 109.352 9.86288C109.352 15.31 104.936 19.7258 99.4892 19.7258H86.3387C80.8916 19.7258 76.4758 15.31 76.4758 9.86288Z" fill="#FFE924"/>
<path d="M90.3564 9.86276C90.3564 4.81913 94.4451 0.730469 99.4887 0.730469C104.532 0.730469 108.621 4.81913 108.621 9.86276C108.621 14.9064 104.532 18.9951 99.4887 18.9951C94.4451 18.9951 90.3564 14.9064 90.3564 9.86276Z" fill="white"/>
<path d="M159.808 11.6311L157.421 4.6858L154.885 11.6311H159.808ZM156.308 2.35286H158.716L164.42 18.0734H162.087L160.492 13.3647H154.275L152.573 18.0734H150.39L156.308 2.35286Z" fill="#898989"/>
<path d="M172.762 1.9248C174.752 1.9248 176.297 2.44918 177.396 3.49793C178.494 4.54668 179.104 5.73811 179.226 7.07223H177.15C176.914 6.05916 176.443 5.25654 175.737 4.66439C175.038 4.07224 174.053 3.77617 172.783 3.77617C171.235 3.77617 169.983 4.32194 169.027 5.4135C168.078 6.49792 167.604 8.16379 167.604 10.4111C167.604 12.2518 168.032 13.7464 168.888 14.895C169.751 16.0365 171.035 16.6073 172.741 16.6073C174.31 16.6073 175.505 16.0044 176.326 14.7987C176.761 14.1638 177.085 13.3291 177.299 12.2946H179.376C179.19 13.9497 178.576 15.3374 177.535 16.4575C176.286 17.8059 174.603 18.48 172.484 18.48C170.657 18.48 169.123 17.9271 167.882 16.8213C166.248 15.3588 165.431 13.1008 165.431 10.0473C165.431 7.72859 166.045 5.82729 167.272 4.34335C168.599 2.73099 170.429 1.9248 172.762 1.9248Z" fill="#898989"/>
<path d="M189.826 11.6311L187.439 4.6858L184.903 11.6311H189.826ZM186.326 2.35286H188.734L194.438 18.0734H192.105L190.511 13.3647H184.293L182.592 18.0734H180.408L186.326 2.35286Z" fill="#898989"/>
<path d="M202.192 16.2541C202.912 16.2541 203.504 16.1792 203.968 16.0294C204.796 15.7512 205.473 15.2161 206.001 14.4242C206.422 13.7892 206.725 12.9759 206.911 11.9842C207.018 11.3921 207.071 10.8427 207.071 10.3362C207.071 8.38852 206.683 6.87604 205.905 5.79875C205.134 4.72147 203.89 4.18282 202.17 4.18282H198.393V16.2541H202.192ZM196.252 2.35286H202.62C204.781 2.35286 206.458 3.11981 207.649 4.65369C208.712 6.03775 209.244 7.81064 209.244 9.97234C209.244 11.6418 208.93 13.1507 208.302 14.4991C207.196 16.882 205.295 18.0734 202.598 18.0734H196.252V2.35286Z" fill="#898989"/>
<path d="M211.978 2.35286H223.44V4.27914H214.054V9.05201H222.733V10.8713H214.054V16.2006H223.6V18.0734H211.978V2.35286Z" fill="#898989"/>
<path d="M226.121 2.35286H229.171L233.687 15.6441L238.171 2.35286H241.188V18.0734H239.166V8.79518C239.166 8.47413 239.173 7.94262 239.187 7.20065C239.201 6.45868 239.209 5.6632 239.209 4.81421L234.725 18.0734H232.616L228.1 4.81421V5.29578C228.1 5.68104 228.108 6.26962 228.122 7.06153C228.143 7.84631 228.154 8.42419 228.154 8.79518V18.0734H226.121V2.35286Z" fill="#898989"/>
<path d="M242.992 2.35286H245.474L249.991 9.90813L254.507 2.35286H257L251.061 11.7381V18.0734H248.931V11.7381L242.992 2.35286Z" fill="#898989"/>
</svg>
