<svg width="28" height="32" viewBox="0 0 28 32" fill="none" xmlns="http://www.w3.org/2000/svg">
<path d="M27 18C27 20.5712 26.2376 23.0846 24.8091 25.2224C23.3806 27.3603 21.3503 29.0265 18.9749 30.0104C16.5994 30.9944 13.9856 31.2518 11.4638 30.7502C8.94207 30.2486 6.62569 29.0105 4.80761 27.1924C2.98953 25.3743 1.7514 23.0579 1.24979 20.5362C0.748184 18.0144 1.00563 15.4006 1.98957 13.0251C2.97351 10.6497 4.63975 8.61935 6.77759 7.1909C8.91543 5.76244 11.4288 5 14 5" stroke="#1C1C1C" stroke-width="2" stroke-linecap="round"/>
<path d="M15.3939 5.55664L11 9.95056" stroke="#1C1C1C" stroke-width="2" stroke-linecap="round"/>
<path d="M11 1L15.3939 5.39392" stroke="#1C1C1C" stroke-width="2" stroke-linecap="round"/>
</svg>
