<svg width="276" height="276" viewBox="0 0 276 276" fill="none" xmlns="http://www.w3.org/2000/svg">
<g clip-path="url(#clip0)">
<path d="M0 22.08C0 9.88555 9.88555 0 22.08 0H253.92C266.114 0 276 9.88555 276 22.08V253.92C276 266.114 266.114 276 253.92 276H22.08C9.88555 276 0 266.114 0 253.92V22.08Z" fill="#292929"/>
<path d="M218.737 92.2076C212.147 52.6683 178.099 32.3495 147.621 32.3495C140.116 31.6173 121.261 31.8553 105.885 38.6648C86.6643 47.1768 62.7759 74.0855 68.5421 116.92C74.3082 159.754 95.9999 197.92 97.6474 213.846C99.2949 229.771 88.3117 236.087 81.4473 237.734C74.5828 239.382 60.0306 229.771 58.3831 236.087C56.7356 242.402 68.8171 253.66 79.8002 255.856C90.7833 258.053 115.77 250.09 121.262 253.66C126.753 257.229 118.515 274.528 115.77 284.413C113.024 294.297 130.597 287.158 138.834 280.843C147.072 274.528 154.485 261.348 159.153 261.622C163.821 261.897 158.878 278.646 156.682 287.158C154.485 295.67 172.058 292.924 183.865 274.528C195.672 256.131 194.848 232.792 197.045 213.846C199.241 194.9 225.326 131.747 218.737 92.2076Z" fill="#FFE816"/>
<path fill-rule="evenodd" clip-rule="evenodd" d="M147.543 33.1352C140.111 32.4102 121.408 32.6529 106.203 39.3868C87.2818 47.7661 63.6055 74.3513 69.3219 116.816C72.1927 138.142 79.0311 158.325 85.3757 175.198C86.733 178.808 88.0712 182.275 89.3427 185.569C91.0355 189.955 92.6102 194.035 93.9551 197.739C96.3086 204.221 98.007 209.676 98.4301 213.766C99.2758 221.941 96.877 227.725 93.3239 231.673C89.7931 235.596 85.1743 237.651 81.6302 238.502C79.7182 238.961 77.3626 238.625 74.9928 238.051C73.302 237.641 71.5182 237.086 69.7982 236.551C69.0952 236.333 68.4029 236.117 67.732 235.916C65.3692 235.209 63.2896 234.689 61.7216 234.701C60.9467 234.707 60.3748 234.844 59.973 235.087C59.5963 235.315 59.3039 235.676 59.1445 236.287C58.8053 237.587 59.1518 239.258 60.1816 241.157C61.202 243.039 62.8393 245.041 64.8896 246.94C68.9973 250.744 74.6369 254.022 79.9538 255.085C82.5799 255.611 86.1041 255.536 90.0634 255.155C93.7582 254.8 97.7632 254.187 101.674 253.588C101.94 253.547 102.205 253.507 102.47 253.466C106.615 252.832 110.632 252.234 113.96 252.021C115.624 251.915 117.142 251.903 118.434 252.037C119.711 252.17 120.849 252.454 121.69 253.001C123.419 254.125 123.937 256.248 123.893 258.597C123.848 260.981 123.224 263.867 122.361 266.886C121.496 269.915 120.372 273.137 119.301 276.201L119.245 276.363C118.19 279.379 117.194 282.227 116.528 284.625C116.206 285.782 116.214 286.583 116.385 287.12C116.544 287.623 116.867 287.967 117.378 288.196C117.917 288.437 118.677 288.55 119.653 288.507C120.62 288.463 121.746 288.268 122.982 287.943C127.946 286.634 134.306 283.323 138.354 280.219C141.857 277.534 145.215 273.573 148.33 269.9C148.803 269.342 149.271 268.79 149.733 268.251C151.464 266.228 153.119 264.368 154.647 263.031C155.413 262.36 156.171 261.8 156.913 261.413C157.653 261.028 158.424 260.792 159.198 260.838C160.07 260.889 160.723 261.347 161.148 262.039C161.547 262.69 161.745 263.54 161.829 264.461C161.997 266.313 161.732 268.784 161.267 271.439C160.514 275.732 159.199 280.701 158.147 284.68C157.893 285.637 157.655 286.537 157.444 287.357C157.198 288.308 157.252 289.011 157.461 289.512C157.664 290 158.05 290.383 158.651 290.64C159.907 291.178 162.036 291.128 164.765 290.19C170.165 288.335 177.377 283.178 183.201 274.104C189.019 265.039 191.742 254.73 193.278 244.28C194.047 239.055 194.517 233.809 194.933 228.671C195.007 227.76 195.079 226.852 195.151 225.948C195.483 221.764 195.808 217.666 196.261 213.757C196.82 208.941 198.885 201.371 201.53 192.191C202.057 190.361 202.608 188.466 203.175 186.512C205.466 178.628 208.032 169.798 210.422 160.554C216.395 137.452 221.223 111.926 217.958 92.3387C211.443 53.247 177.786 33.139 147.62 33.139H147.581L147.543 33.1352ZM147.658 31.5633C140.054 30.8284 121.086 31.0725 105.565 37.9461C86.0448 46.5906 61.9444 73.8228 67.7603 117.026C70.6557 138.535 77.5462 158.853 83.9008 175.752C85.2705 179.395 86.6119 182.87 87.8833 186.164C89.5687 190.53 91.1313 194.579 92.474 198.277C94.8312 204.769 96.4621 210.056 96.8628 213.929C97.6645 221.679 95.3955 227.016 92.1527 230.619C88.8877 234.247 84.5828 236.173 81.2624 236.97C79.7422 237.335 77.7046 237.087 75.3638 236.52C73.7245 236.122 72.0195 235.592 70.32 235.063C69.6052 234.841 68.8913 234.619 68.1837 234.407C65.8444 233.707 63.548 233.111 61.7097 233.125C60.7814 233.132 59.8924 233.294 59.1563 233.74C58.3949 234.201 57.8722 234.922 57.6198 235.889C57.1352 237.747 57.6811 239.852 58.7965 241.908C59.9212 243.982 61.6818 246.116 63.8188 248.096C68.0857 252.048 73.9785 255.497 79.6447 256.631C82.5101 257.204 86.2279 257.107 90.2142 256.724C93.9546 256.364 98.0009 255.744 101.9 255.147C102.17 255.106 102.44 255.065 102.708 255.024C106.869 254.387 110.815 253.801 114.06 253.594C115.682 253.49 117.103 253.483 118.271 253.605C119.455 253.728 120.299 253.976 120.831 254.322C121.848 254.983 122.359 256.361 122.318 258.567C122.277 260.74 121.7 263.466 120.846 266.453C119.995 269.43 118.888 272.609 117.814 275.681L117.746 275.876C116.7 278.865 115.69 281.755 115.01 284.203C114.644 285.518 114.585 286.656 114.882 287.596C115.191 288.57 115.855 289.24 116.734 289.634C117.584 290.014 118.618 290.13 119.723 290.081C120.836 290.031 122.078 289.81 123.383 289.466C128.578 288.097 135.123 284.682 139.313 281.47C142.962 278.672 146.444 274.563 149.546 270.903C150.016 270.348 150.478 269.804 150.93 269.275C152.665 267.248 154.253 265.47 155.685 264.216C156.4 263.591 157.052 263.117 157.64 262.811C158.231 262.504 158.713 262.387 159.106 262.411C159.401 262.428 159.615 262.553 159.805 262.863C160.02 263.214 160.185 263.784 160.259 264.604C160.408 266.237 160.176 268.536 159.715 271.167C158.975 275.386 157.684 280.265 156.632 284.243C156.376 285.211 156.134 286.125 155.918 286.963C155.614 288.14 155.629 289.212 156.007 290.119C156.39 291.038 157.11 291.694 158.031 292.089C159.822 292.855 162.412 292.665 165.277 291.68C171.066 289.692 178.544 284.277 184.527 274.955C190.516 265.623 193.285 255.064 194.837 244.509C195.614 239.231 196.087 233.94 196.503 228.798C196.578 227.881 196.65 226.969 196.722 226.062C197.054 221.879 197.377 217.817 197.826 213.938C198.366 209.281 200.386 201.852 203.044 192.627C203.569 190.804 204.119 188.912 204.686 186.961C206.977 179.076 209.551 170.218 211.947 160.948C217.919 137.852 222.838 112.031 219.513 92.0797C212.851 52.1094 178.439 31.5803 147.658 31.5633Z" fill="#563E1B"/>
<path d="M112.748 116.922H139.656V117.471C147.07 116.19 162.336 114.396 164.094 117.471C166.29 121.315 164.094 130.102 161.897 135.319C159.7 140.536 155.856 146.851 143.775 147.675C131.693 148.498 124.829 144.654 118.514 137.241C113.462 131.31 112.565 121.224 112.748 116.922Z" fill="white"/>
<path d="M173.156 114.45L173.156 122.413C169.586 121.04 157.834 118.239 139.383 118.02C120.931 117.8 108.63 120.857 104.786 122.413L104.786 114.45C111.559 113.993 127.686 113.077 138.01 113.077C148.334 113.077 165.742 113.993 173.156 114.45Z" fill="black"/>
<path fill-rule="evenodd" clip-rule="evenodd" d="M155.306 145.135C151.735 147.485 147.058 148.895 141.031 148.895C128.943 148.895 121.444 143.502 117.043 136.726C112.678 130.005 111.389 121.978 111.53 116.623L113.42 116.672C113.286 121.751 114.523 129.374 118.629 135.696C122.699 141.963 129.615 147.004 141.031 147.004C146.756 147.004 151.056 145.668 154.267 143.556C157.479 141.443 159.665 138.511 161.093 135.217C163.966 128.593 163.741 120.571 162.621 115.193L164.472 114.807C165.639 120.412 165.909 128.864 162.828 135.969C161.28 139.54 158.877 142.786 155.306 145.135Z" fill="black"/>
<path d="M141.239 141.633C126.485 141.633 122.138 125.096 121.809 116.828L156.058 115.822C157.266 124.426 155.993 141.633 141.239 141.633Z" fill="black"/>
<path d="M156.406 123.941C156.406 126.585 154.262 128.729 151.618 128.729C148.974 128.729 146.83 126.585 146.83 123.941C146.83 121.296 148.974 119.153 151.618 119.153C154.262 119.153 156.406 121.296 156.406 123.941Z" fill="white"/>
<path d="M133.341 134.219C133.341 136.19 131.743 137.788 129.771 137.788C127.8 137.788 126.202 136.19 126.202 134.219C126.202 132.248 127.8 130.649 129.771 130.649C131.743 130.649 133.341 132.248 133.341 134.219Z" fill="white"/>
<path d="M61.6847 168.646C61.4656 166.839 62.7526 165.197 64.5591 164.978C66.3656 164.759 68.0076 166.046 68.2266 167.853L80.5113 269.179C80.7304 270.985 79.4434 272.627 77.6369 272.847C75.8304 273.066 74.1884 271.779 73.9694 269.972L61.6847 168.646Z" fill="#796B5F"/>
<path fill-rule="evenodd" clip-rule="evenodd" d="M60.9025 168.74C60.6311 166.501 62.2258 164.467 64.4642 164.195C66.7027 163.924 68.7374 165.518 69.0087 167.757L81.2934 269.083C81.5648 271.321 79.9702 273.356 77.7317 273.627C75.4933 273.899 73.4586 272.304 73.1872 270.066L60.9025 168.74ZM64.6539 165.759C63.2793 165.926 62.3001 167.175 62.4668 168.55L74.7515 269.876C74.9181 271.251 76.1675 272.23 77.5421 272.063C78.9167 271.897 79.8959 270.647 79.7292 269.273L67.4445 167.946C67.2779 166.572 66.0285 165.593 64.6539 165.759Z" fill="#4E4231"/>
<path d="M57.5577 237.186C56.1848 230.047 60.3035 224.007 64.6967 222.359C70.1888 219.888 80.0726 230.597 80.8964 233.068C81.7201 235.539 78.4252 238.559 74.8556 241.031C71.2861 243.502 58.9306 244.326 57.5577 237.186Z" fill="#C4C4C4"/>
<path d="M57.5577 237.186C56.1848 230.047 60.3035 224.007 64.6967 222.359C70.1888 219.888 80.0726 230.597 80.8964 233.068C81.7201 235.539 78.4252 238.559 74.8556 241.031C71.2861 243.502 58.9306 244.326 57.5577 237.186Z" fill="#FFE600"/>
<path fill-rule="evenodd" clip-rule="evenodd" d="M80.8382 231.349C81.207 231.887 81.504 232.399 81.6433 232.817C82.1957 234.474 81.3221 236.147 80.1233 237.557C78.8896 239.009 77.1068 240.428 75.3036 241.676C74.281 242.384 72.7159 242.926 70.9838 243.249C69.2343 243.575 67.2367 243.691 65.3026 243.494C61.5084 243.108 57.5743 241.445 56.7836 237.333C55.3447 229.851 59.6321 223.43 64.3965 221.628C66.0481 220.896 67.9339 221.183 69.725 221.91C71.5383 222.647 73.3838 223.884 75.0467 225.249C76.7148 226.619 78.2314 228.144 79.387 229.489C79.9649 230.161 80.4586 230.796 80.8382 231.349ZM69.1322 223.37C67.5082 222.711 66.1083 222.586 65.0195 223.076L64.9965 223.086L64.9729 223.095C60.96 224.6 57.0263 230.252 58.3309 237.036C58.9131 240.063 61.8432 241.558 65.4623 241.927C67.2349 242.107 69.0813 242 70.6953 241.7C72.3267 241.396 73.6446 240.908 74.4067 240.381C76.173 239.158 77.8225 237.831 78.9227 236.537C80.0579 235.201 80.4199 234.129 80.1485 233.315C80.0818 233.115 79.8898 232.752 79.5389 232.241C79.1989 231.745 78.7424 231.156 78.192 230.516C77.0911 229.235 75.6391 227.774 74.0467 226.467C72.4492 225.155 70.7425 224.024 69.1322 223.37Z" fill="#563E1B"/>
<path d="M33.5831 176.315C33.3274 174.242 34.8005 172.354 36.8733 172.099L95.4198 164.877C97.4926 164.621 99.3803 166.094 99.6359 168.167L104.842 210.37C105.098 212.443 103.625 214.331 101.552 214.586L43.0053 221.808C40.9324 222.064 39.0448 220.591 38.7891 218.518L33.5831 176.315Z" fill="white"/>
<path fill-rule="evenodd" clip-rule="evenodd" d="M95.6127 166.44L37.0662 173.662C35.8571 173.812 34.9978 174.913 35.1469 176.122L40.3529 218.325C40.5021 219.534 41.6032 220.394 42.8124 220.245L101.359 213.023C102.568 212.873 103.427 211.772 103.278 210.563L98.0721 168.36C97.923 167.151 96.8218 166.291 95.6127 166.44ZM36.8733 172.099C34.8005 172.354 33.3274 174.242 33.5831 176.315L38.7891 218.518C39.0448 220.591 40.9324 222.064 43.0053 221.808L101.552 214.586C103.625 214.331 105.098 212.443 104.842 210.37L99.6359 168.167C99.3803 166.094 97.4926 164.621 95.4198 164.877L36.8733 172.099Z" fill="#3D3D3D"/>
<path d="M70.3987 205.582L65.6006 206.083L64.5568 196.103L55.2005 197.082L56.2443 207.062L51.4462 207.564L49.0107 184.277L53.8088 183.775L54.7957 193.211L64.152 192.233L63.1651 182.797L67.9632 182.295L70.3987 205.582Z" fill="#474747"/>
<path d="M79.707 204.608L74.9089 205.11L72.4735 181.823L77.2716 181.321L79.707 204.608Z" fill="#474747"/>
<path d="M87.8198 196.532L83.9813 196.934L81.7498 180.853L86.6758 180.338L87.8198 196.532ZM86.1648 199.26C86.9432 199.179 87.5909 199.343 88.108 199.752C88.6358 200.16 88.937 200.722 89.0117 201.436C89.0853 202.14 88.9062 202.746 88.4743 203.255C88.0531 203.762 87.4533 204.057 86.675 204.138C85.9073 204.218 85.2596 204.054 84.7318 203.646C84.2147 203.237 83.9194 202.68 83.8458 201.976C83.7722 201.273 83.946 200.667 84.3672 200.159C84.7979 199.64 85.3971 199.34 86.1648 199.26Z" fill="#474747"/>
</g>
<defs>
<clipPath id="clip0">
<path d="M0 22.08C0 9.88555 9.88555 0 22.08 0H253.92C266.114 0 276 9.88555 276 22.08V253.92C276 266.114 266.114 276 253.92 276H22.08C9.88555 276 0 266.114 0 253.92V22.08Z" fill="white"/>
</clipPath>
</defs>
</svg>
